<svg width="32" height="32" viewBox="0 0 32 32" fill="none" xmlns="http://www.w3.org/2000/svg">
    <path fill-rule="evenodd" clip-rule="evenodd" d="M2.3424 29.6576C4.688 32 8.4576 32 16 32C23.5424 32 27.3136 32 29.656 29.656C32 27.3152 32 23.5424 32 16C32 8.4576 32 4.6864 29.656 2.3424C27.3152 0 23.5424 0 16 0C8.4576 0 4.6864 0 2.3424 2.3424C0 4.688 0 8.4576 0 16C0 23.5424 0 27.3152 2.3424 29.6576ZM20.4 22.4C20.4 22.7183 20.2736 23.0235 20.0485 23.2485C19.8235 23.4736 19.5183 23.6 19.2 23.6H12.8C12.4817 23.6 12.1765 23.4736 11.9515 23.2485C11.7264 23.0235 11.6 22.7183 11.6 22.4C11.6 22.0817 11.7264 21.7765 11.9515 21.5515C12.1765 21.3264 12.4817 21.2 12.8 21.2H19.2C19.5183 21.2 19.8235 21.3264 20.0485 21.5515C20.2736 21.7765 20.4 22.0817 20.4 22.4ZM22.4 17.2C22.7183 17.2 23.0235 17.0736 23.2485 16.8485C23.4736 16.6235 23.6 16.3183 23.6 16C23.6 15.6817 23.4736 15.3765 23.2485 15.1515C23.0235 14.9264 22.7183 14.8 22.4 14.8H9.6C9.28174 14.8 8.97652 14.9264 8.75147 15.1515C8.52643 15.3765 8.4 15.6817 8.4 16C8.4 16.3183 8.52643 16.6235 8.75147 16.8485C8.97652 17.0736 9.28174 17.2 9.6 17.2H22.4ZM26.8 9.6C26.8 9.91826 26.6736 10.2235 26.4485 10.4485C26.2235 10.6736 25.9183 10.8 25.6 10.8H6.4C6.08174 10.8 5.77652 10.6736 5.55147 10.4485C5.32643 10.2235 5.2 9.91826 5.2 9.6C5.2 9.28174 5.32643 8.97652 5.55147 8.75147C5.77652 8.52643 6.08174 8.4 6.4 8.4H25.6C25.9183 8.4 26.2235 8.52643 26.4485 8.75147C26.6736 8.97652 26.8 9.28174 26.8 9.6Z" fill="#100E09"/>
</svg>
