<svg width="130" height="103" viewBox="0 0 130 103" fill="none" xmlns="http://www.w3.org/2000/svg">
    <path d="M59.5968 90.5221C36.9278 90.5221 16.0135 90.5221 11.8305 90.5221C5.2209 90.5221 -4.57293 80.9091 2.39852 71.088C9.36997 61.2672 18.2044 55.8469 15.6149 43.7882C13.0254 31.7295 8.06629 19.6778 16.2527 11.0822C26.9359 -0.135203 54.2533 16.2149 66.2932 10.3603C78.3329 4.50567 100.012 -5.26817 112.959 3.49603C125.906 12.2602 117.2 40.6012 119.789 47.8936C122.379 55.1861 127.576 55.0435 129.606 66.8626C131.544 78.1467 126.163 89.5064 117.2 89.5064C109.83 89.5064 59.5968 90.5221 59.5968 90.5221Z" fill="#DBF1FE"/>
    <path d="M58.9442 90.522C36.7885 90.522 16.3475 90.522 12.2593 90.522C8.17105 90.522 -2.14668 80.6804 4.667 71.0819C11.4807 61.4834 18.4891 56.632 15.9583 44.8462C13.4276 33.0607 9.66491 22.8344 17.6657 14.4333C28.107 3.46962 54.5259 16.0822 66.2929 10.3599C78.06 4.63763 98.4444 -3.09967 111.098 5.46587C123.753 14.0317 115.243 41.731 117.774 48.8584C120.305 55.9855 125.384 55.8462 127.368 67.3979C129.263 78.4264 124.004 89.5291 115.243 89.5291C108.04 89.5291 58.9442 90.522 58.9442 90.522Z" fill="#A4D9F7"/>
    <path d="M101.722 47.1769C102.325 43.437 99.7813 39.9166 96.0414 39.314C92.3015 38.7113 88.7811 41.2545 88.1785 44.9944C87.5758 48.7343 90.119 52.2547 93.8589 52.8573C97.5988 53.46 101.119 50.9168 101.722 47.1769Z" fill="#FF6110"/>
    <path d="M99.1913 50.3351C101.538 47.9887 101.538 44.1844 99.1913 41.838C96.8449 39.4916 93.0406 39.4915 90.6942 41.838C88.3478 44.1844 88.3478 47.9887 90.6942 50.3351C93.0406 52.6815 96.8449 52.6815 99.1913 50.3351Z" fill="#FFD36B"/>
    <path d="M94.577 50.5845V49.4943C93.9507 49.4834 93.303 49.2893 92.925 49.0192L93.1846 48.296C93.5731 48.5552 94.1346 48.7602 94.739 48.7602C95.5058 48.7602 96.0236 48.3175 96.0236 47.7024C96.0236 47.1086 95.6027 46.7416 94.8035 46.4178C93.7024 45.986 93.0223 45.4894 93.0223 44.55C93.0223 43.6539 93.6594 42.9738 94.6524 42.8117V41.7213H95.322V42.7684C95.9694 42.7902 96.4121 42.9629 96.7253 43.1464L96.4554 43.8589C96.2289 43.7293 95.7859 43.4919 95.0948 43.4919C94.2636 43.4919 93.9507 43.9885 93.9507 44.4204C93.9507 44.9815 94.3502 45.2622 95.2896 45.6511C96.4012 46.1044 96.9627 46.6659 96.9627 47.6267C96.9627 48.4795 96.3688 49.2784 95.2571 49.4622V50.5848H94.577V50.5845Z" fill="#FF6110"/>
    <path d="M110.488 36.5174C111.725 33.5108 110.29 30.0711 107.284 28.8344C104.277 27.5977 100.837 29.0325 99.6008 32.039C98.3642 35.0455 99.7989 38.4852 102.805 39.7219C105.812 40.9586 109.252 39.5239 110.488 36.5174Z" fill="#FF6110"/>
    <path d="M108.693 37.9248C110.707 35.9111 110.707 32.6462 108.693 30.6324C106.68 28.6186 103.415 28.6186 101.401 30.6324C99.3871 32.6462 99.3871 35.9111 101.401 37.9249C103.415 39.9386 106.68 39.9386 108.693 37.9248Z" fill="#FFD36B"/>
    <path d="M104.733 38.1385V37.2027C104.196 37.1933 103.64 37.0268 103.316 36.7948L103.538 36.174C103.872 36.3963 104.354 36.5725 104.872 36.5725C105.53 36.5725 105.975 36.1928 105.975 35.6647C105.975 35.155 105.614 34.84 104.928 34.562C103.983 34.1914 103.399 33.7653 103.399 32.9592C103.399 32.1903 103.946 31.6064 104.798 31.4674V30.5317H105.373V31.4302C105.929 31.4486 106.309 31.597 106.578 31.7545L106.346 32.3662C106.152 32.2551 105.771 32.0513 105.178 32.0513C104.465 32.0513 104.196 32.4777 104.196 32.8483C104.196 33.3301 104.539 33.5709 105.345 33.9046C106.3 34.2937 106.781 34.7755 106.781 35.6001C106.781 36.3321 106.272 37.0177 105.317 37.1752V38.1388H104.733V38.1385Z" fill="#FF6110"/>
    <path d="M101.207 21.0914C101.651 18.3428 99.7824 15.7549 97.0338 15.3111C94.2853 14.8673 91.6974 16.7357 91.2536 19.4843C90.8098 22.2328 92.6781 24.8207 95.4267 25.2645C98.1752 25.7083 100.763 23.8399 101.207 21.0914Z" fill="#FF6110"/>
    <path d="M99.7316 22.966C101.213 21.0288 100.844 18.2571 98.9066 16.7755C96.9693 15.2938 94.1977 15.6631 92.716 17.6004C91.2343 19.5377 91.6037 22.3093 93.541 23.791C95.4783 25.2727 98.2499 24.9033 99.7316 22.966Z" fill="#FFD36B"/>
    <path d="M95.9564 23.5899V22.7886C95.4961 22.7808 95.02 22.6378 94.7423 22.4395L94.9331 21.9077C95.2187 22.0982 95.6314 22.249 96.0757 22.249C96.6392 22.249 97.0199 21.9237 97.0199 21.4713C97.0199 21.0349 96.7104 20.7651 96.1232 20.5271C95.3137 20.2097 94.8138 19.8448 94.8138 19.1544C94.8138 18.4957 95.2823 17.9957 96.0121 17.8767V17.0754H96.5042V17.8449C96.9802 17.861 97.3055 17.9879 97.5356 18.1226L97.3376 18.6465C97.171 18.5514 96.8455 18.3767 96.3376 18.3767C95.7268 18.3767 95.4967 18.7419 95.4967 19.0593C95.4967 19.4717 95.7904 19.6783 96.4806 19.9638C97.2979 20.2969 97.7103 20.7097 97.7103 21.4159C97.7103 22.0428 97.274 22.6299 96.4566 22.7647V23.5899H95.9564Z" fill="#FF6110"/>
    <path d="M60.908 44.5037L60.8423 59.3496L60.8259 63.5908L60.7602 78.4337C60.7602 86.4399 57.3404 92.9677 53.0562 93.2666C52.9545 93.2733 52.8524 93.2766 52.7507 93.2766H27.6382V93.2733C29.7507 93.1879 31.6592 91.588 33.0655 89.0351C34.5506 86.3412 35.4703 82.5861 35.4703 78.4337L35.4866 48.8993L35.49 44.5037C35.49 36.307 40.7628 29.6611 47.271 29.6611C50.4807 29.6611 53.3881 31.2806 55.517 33.9022C57.6983 36.5962 59.052 40.3513 59.052 44.5037H60.908Z" fill="#0496BE"/>
    <path d="M35.4879 48.8993L35.4845 56.3634L35.4812 58.2492V62.4739L35.4779 64.813V69.0345L35.4745 70.9235V75.145L35.4712 77.484V78.4334C35.4712 78.7486 35.4645 79.0609 35.4548 79.3697C35.4285 80.168 35.3694 80.9466 35.2741 81.7055C35.1983 82.3526 35.0966 82.9834 34.9752 83.5945C34.811 84.4091 34.6106 85.191 34.374 85.9303C34.1672 86.5938 33.9274 87.2245 33.6645 87.816C33.4807 88.243 33.2802 88.6503 33.0667 89.0349C32.8499 89.4325 32.6167 89.8068 32.3769 90.155C31.8545 90.9073 31.2828 91.5447 30.6686 92.0408C29.7389 92.793 28.7138 93.23 27.6397 93.2727C27.5807 93.276 27.5213 93.276 27.4623 93.276C23.037 93.276 19.4527 86.6298 19.4527 78.4334V48.899L35.4879 48.8993Z" fill="#DBF1FE"/>
    <path d="M35.4845 56.3635L35.4812 58.2492H23.3816V56.3635H35.4845Z" fill="#05609A"/>
    <path d="M35.4812 60.5883H23.3816V62.474H35.4812V60.5883Z" fill="#05609A"/>
    <path d="M35.4778 64.813H23.3816V66.6988H35.4778V64.813Z" fill="#05609A"/>
    <path d="M35.4781 69.0345L35.4748 70.9235H23.3816V69.0345H35.4781Z" fill="#05609A"/>
    <path d="M35.4745 73.2596H23.3816V75.1453H35.4745V73.2596Z" fill="#05609A"/>
    <path d="M35.4715 77.4844V78.4337C35.4715 78.749 35.4648 79.0612 35.4551 79.3701H23.3819V77.4844H35.4715Z" fill="#05609A"/>
    <path d="M35.2744 81.7058C35.1987 82.353 35.0969 82.9838 34.9755 83.5949H23.8813C23.7565 82.9838 23.6545 82.353 23.5824 81.7058H35.2744Z" fill="#05609A"/>
    <path d="M34.374 85.9306C34.1672 86.5941 33.9274 87.2249 33.6645 87.8163H25.1853C24.9224 87.2249 24.6859 86.5941 24.4791 85.9306H34.374Z" fill="#05609A"/>
    <path d="M32.3769 90.1556C31.8545 90.9079 31.2827 91.5453 30.6686 92.0414H28.1881C27.5737 91.5453 26.9989 90.9079 26.4799 90.1556H32.3769Z" fill="#05609A"/>
    <path d="M84.4697 44.5037H59.0517C59.0517 40.3513 57.698 36.5962 55.5168 33.9022C53.3879 31.2806 50.4804 29.6611 47.2707 29.6611H72.6887C79.1968 29.6608 84.4697 36.307 84.4697 44.5037Z" fill="#DBF1FE"/>
    <path d="M77.6673 32.3417H55.7975C54.9005 31.5468 53.9084 30.9094 52.8506 30.4527H74.7271C75.7815 30.9094 76.7703 31.5465 77.6673 32.3417Z" fill="#05609A"/>
    <path d="M80.8703 36.5632H58.9972C58.6653 35.8964 58.2876 35.2656 57.8737 34.6775H79.7468C80.1607 35.2656 80.5353 35.8964 80.8703 36.5632Z" fill="#05609A"/>
    <path d="M88.7145 42.1834V101.826H52.374C52.1247 101.826 51.8782 101.808 51.6378 101.775C51.4358 101.749 51.2372 101.71 51.0412 101.663C48.6637 101.066 46.9009 98.9141 46.9009 96.3527V70.9286C42.069 67.7738 38.8784 62.3186 38.8784 56.1154C38.8784 47.5347 44.9864 40.3788 53.095 38.7644C53.8073 38.6221 54.5344 38.524 55.2736 38.4707C55.7039 38.438 56.1342 38.4232 56.5706 38.4232H84.9536C87.0317 38.4229 88.7145 40.106 88.7145 42.1834Z" fill="#05609A"/>
    <path d="M89.0967 102.735H55.3923C54.6755 102.735 54.0944 102.154 54.0944 101.437V42.3566C54.0944 41.6398 54.6755 41.0587 55.3923 41.0587H89.0964C89.8132 41.0587 90.3943 41.6398 90.3943 42.3566V101.437C90.3943 102.154 89.8135 102.735 89.0967 102.735Z" fill="#051445"/>
    <path d="M88.7145 44.5052H55.7756V96.525H88.7145V44.5052Z" fill="#02CDCD"/>
    <path d="M72.0764 101.826C73.2891 101.826 74.2722 100.843 74.2722 99.63C74.2722 98.4172 73.2891 97.4341 72.0764 97.4341C70.8637 97.4341 69.8806 98.4172 69.8806 99.63C69.8806 100.843 70.8637 101.826 72.0764 101.826Z" fill="#05609A"/>
    <path d="M75.9593 43.4011H68.5299C68.261 43.4011 68.0433 43.183 68.0433 42.9144V42.6273C68.0433 42.3584 68.261 42.1407 68.5299 42.1407H75.9593C76.2282 42.1407 76.4459 42.3587 76.4459 42.6273V42.9144C76.4459 43.1833 76.2279 43.4011 75.9593 43.4011Z" fill="#05609A"/>
    <path d="M84.5494 54.2064H84.3901C83.8719 54.2064 83.4522 54.6264 83.4522 55.1442V85.8857C83.4522 86.4039 83.8722 86.8239 84.3901 86.8239H84.5494C85.0675 86.8239 85.4875 86.4039 85.4875 85.8857V55.1442C85.4875 54.6261 85.0675 54.2064 84.5494 54.2064Z" fill="#05609A"/>
    <path d="M79.4131 76.6218H65.0759L66.5864 64.0238H77.9025L79.4131 76.6218Z" fill="#ECF0FB"/>
    <path d="M75.0717 64.0238H74.6774C74.6774 62.2353 73.5894 60.7881 72.2445 60.7881C70.8996 60.7881 69.8116 62.2353 69.8116 64.0238H69.4136C69.4136 61.9464 70.681 60.2635 72.2445 60.2635C73.8077 60.2635 75.0717 61.9467 75.0717 64.0238Z" fill="#051445"/>
    <path d="M65.0759 76.6218L72.2445 75.0507L79.4131 76.6218H65.0759Z" fill="#BDD2FF"/>
    <mask id="mask0_1_4933" style="mask-type:luminance" maskUnits="userSpaceOnUse" x="85" y="57" width="34" height="27">
        <path d="M118.782 57.817H85.4875V83.213H118.782V57.817Z" fill="white"/>
    </mask>
    <g mask="url(#mask0_1_4933)">
        <path d="M76.962 60.2112V80.8185C76.962 82.1406 78.034 83.2126 79.3562 83.2126H115.32C116.642 83.2126 117.714 82.1406 117.714 80.8185V60.2112C117.714 58.8887 116.642 57.817 115.32 57.817H79.3562C78.034 57.817 76.962 58.889 76.962 60.2112Z" fill="#303449"/>
        <path d="M116.302 72.5079H107.409V74.9021H116.302V72.5079Z" fill="white"/>
        <path d="M106.623 72.5079H97.731V74.9021H106.623V72.5079Z" fill="white"/>
        <path d="M96.9448 72.5079H88.0525V74.9021H96.9448V72.5079Z" fill="white"/>
        <path d="M87.2664 72.5079H78.3741V74.9021H87.2664V72.5079Z" fill="white"/>
        <path d="M113.323 66.0397H107.54C106.949 66.0397 106.469 65.5604 106.469 64.9689V62.0121C106.469 61.4207 106.949 60.9413 107.54 60.9413H113.323C113.914 60.9413 114.394 61.4207 114.394 62.0121V64.9689C114.394 65.5604 113.914 66.0397 113.323 66.0397Z" fill="#FEB313"/>
    </g>
    <path d="M55.2739 38.4704C54.535 38.5237 53.8076 38.6218 53.0953 38.7641C51.8516 39.6693 51.0415 41.1386 51.0415 42.7918V101.662C51.2374 101.71 51.4361 101.748 51.6381 101.775C51.6351 101.754 51.6351 101.736 51.6351 101.716V42.7918C51.6351 40.6281 53.211 38.8238 55.2739 38.4704Z" fill="#051445"/>
    <path d="M28.2457 38.12C31.1991 38.12 33.5934 35.7258 33.5934 32.7724C33.5934 29.8189 31.1991 27.4247 28.2457 27.4247C25.2922 27.4247 22.898 29.8189 22.898 32.7724C22.898 35.7258 25.2922 38.12 28.2457 38.12Z" fill="#0496BE"/>
    <path d="M28.057 35.2761L25.2274 32.0274L26.4266 30.9829L28.1975 33.0164L33.5001 28.2717L34.5606 29.4572L28.057 35.2761Z" fill="#DBF1FE"/>
    <path d="M28.2457 22.4231C31.1991 22.4231 33.5934 20.0289 33.5934 17.0755C33.5934 14.122 31.1991 11.7278 28.2457 11.7278C25.2922 11.7278 22.898 14.122 22.898 17.0755C22.898 20.0289 25.2922 22.4231 28.2457 22.4231Z" fill="#0496BE"/>
    <path d="M28.057 19.5792L25.2274 16.3305L26.4266 15.286L28.1975 17.3195L33.5001 12.5748L34.5606 13.7603L28.057 19.5792Z" fill="#DBF1FE"/>
</svg>
